<mxfile host="app.diagrams.net" modified="2021-10-18T15:31:34.713Z" agent="5.0 (Windows NT 10.0; Win64; x64) AppleWebKit/537.36 (KHTML, like Gecko) Chrome/94.0.4606.81 Safari/537.36" etag="DMuvK38Ph04j3pA3k8Nk" version="15.5.5" type="github">
  <diagram id="C5RBs43oDa-KdzZeNtuy" name="Page-1">
    <mxGraphModel dx="868" dy="450" grid="0" gridSize="10" guides="1" tooltips="1" connect="1" arrows="1" fold="1" page="1" pageScale="1" pageWidth="827" pageHeight="1169" background="#114B5F" math="0" shadow="1">
      <root>
        <mxCell id="WIyWlLk6GJQsqaUBKTNV-0" />
        <mxCell id="WIyWlLk6GJQsqaUBKTNV-1" parent="WIyWlLk6GJQsqaUBKTNV-0" />
        <mxCell id="gjaV1r2FVJud3NEbYi1d-0" value="&lt;font style=&quot;vertical-align: inherit&quot;&gt;&lt;font style=&quot;vertical-align: inherit&quot;&gt;Inicio&lt;/font&gt;&lt;/font&gt;" style="ellipse;whiteSpace=wrap;html=1;fillColor=#F45B69;strokeColor=#028090;fontColor=#E4FDE1;" vertex="1" parent="WIyWlLk6GJQsqaUBKTNV-1">
          <mxGeometry x="20" y="10" width="130" height="80" as="geometry" />
        </mxCell>
        <mxCell id="gjaV1r2FVJud3NEbYi1d-1" value="" style="endArrow=classic;html=1;rounded=0;exitX=0.5;exitY=1;exitDx=0;exitDy=0;strokeColor=#028090;fontColor=#E4FDE1;labelBackgroundColor=#114B5F;" edge="1" parent="WIyWlLk6GJQsqaUBKTNV-1" source="gjaV1r2FVJud3NEbYi1d-0">
          <mxGeometry width="50" height="50" relative="1" as="geometry">
            <mxPoint x="60" y="140" as="sourcePoint" />
            <mxPoint x="85" y="140" as="targetPoint" />
            <Array as="points" />
          </mxGeometry>
        </mxCell>
        <mxCell id="gjaV1r2FVJud3NEbYi1d-2" value="&lt;font style=&quot;vertical-align: inherit&quot;&gt;&lt;font style=&quot;vertical-align: inherit&quot;&gt;Data Evento - Posterior a data atual&lt;/font&gt;&lt;/font&gt;" style="rounded=0;whiteSpace=wrap;html=1;fillColor=#F45B69;strokeColor=#028090;fontColor=#E4FDE1;" vertex="1" parent="WIyWlLk6GJQsqaUBKTNV-1">
          <mxGeometry x="20" y="140" width="130" height="80" as="geometry" />
        </mxCell>
        <mxCell id="gjaV1r2FVJud3NEbYi1d-3" value="&lt;font style=&quot;font-size: 21px&quot;&gt;FIM&lt;/font&gt;" style="ellipse;whiteSpace=wrap;html=1;rounded=0;sketch=0;fontColor=#E4FDE1;strokeColor=#028090;fillColor=#F45B69;" vertex="1" parent="WIyWlLk6GJQsqaUBKTNV-1">
          <mxGeometry x="606" y="47" width="202" height="123" as="geometry" />
        </mxCell>
        <mxCell id="gjaV1r2FVJud3NEbYi1d-10" value="" style="endArrow=classic;html=1;rounded=1;sketch=0;fontSize=12;fontColor=default;strokeColor=#028090;fillColor=#F45B69;curved=0;" edge="1" parent="WIyWlLk6GJQsqaUBKTNV-1" source="gjaV1r2FVJud3NEbYi1d-2">
          <mxGeometry relative="1" as="geometry">
            <mxPoint x="150" y="180" as="sourcePoint" />
            <mxPoint x="250" y="180" as="targetPoint" />
          </mxGeometry>
        </mxCell>
        <mxCell id="gjaV1r2FVJud3NEbYi1d-11" value="Não" style="edgeLabel;resizable=0;html=1;align=center;verticalAlign=middle;rounded=0;labelBackgroundColor=none;sketch=0;fontSize=12;fontColor=#FFFFFF;strokeColor=#028090;fillColor=#F45B69;" connectable="0" vertex="1" parent="gjaV1r2FVJud3NEbYi1d-10">
          <mxGeometry relative="1" as="geometry">
            <mxPoint x="-1" y="-10" as="offset" />
          </mxGeometry>
        </mxCell>
        <mxCell id="gjaV1r2FVJud3NEbYi1d-12" value="Evento já ocorrido" style="strokeWidth=2;html=1;shape=mxgraph.flowchart.display;whiteSpace=wrap;rounded=0;labelBackgroundColor=none;sketch=0;fontSize=12;fontColor=#FFFFFF;fillColor=#F45B69;strokeColor=none;" vertex="1" parent="WIyWlLk6GJQsqaUBKTNV-1">
          <mxGeometry x="248" y="140" width="128" height="80" as="geometry" />
        </mxCell>
        <mxCell id="gjaV1r2FVJud3NEbYi1d-14" value="" style="curved=1;endArrow=classic;html=1;rounded=1;sketch=0;fontSize=12;fontColor=#FFFFFF;strokeColor=#028090;fillColor=#F45B69;entryX=0.059;entryY=0.78;entryDx=0;entryDy=0;entryPerimeter=0;" edge="1" parent="WIyWlLk6GJQsqaUBKTNV-1" source="gjaV1r2FVJud3NEbYi1d-12" target="gjaV1r2FVJud3NEbYi1d-3">
          <mxGeometry width="50" height="50" relative="1" as="geometry">
            <mxPoint x="376" y="230" as="sourcePoint" />
            <mxPoint x="446.71067811865476" y="180" as="targetPoint" />
            <Array as="points">
              <mxPoint x="564" y="186" />
            </Array>
          </mxGeometry>
        </mxCell>
        <mxCell id="gjaV1r2FVJud3NEbYi1d-15" value="" style="endArrow=classic;html=1;rounded=1;sketch=0;fontSize=12;fontColor=#FFFFFF;strokeColor=#028090;fillColor=#F45B69;curved=0;" edge="1" parent="WIyWlLk6GJQsqaUBKTNV-1" source="gjaV1r2FVJud3NEbYi1d-2">
          <mxGeometry relative="1" as="geometry">
            <mxPoint x="85" y="220" as="sourcePoint" />
            <mxPoint x="85" y="295" as="targetPoint" />
          </mxGeometry>
        </mxCell>
        <mxCell id="gjaV1r2FVJud3NEbYi1d-16" value="Sim" style="edgeLabel;resizable=0;html=1;align=center;verticalAlign=middle;rounded=0;labelBackgroundColor=none;sketch=0;fontSize=12;fontColor=#FFFFFF;strokeColor=#028090;fillColor=#F45B69;" connectable="0" vertex="1" parent="gjaV1r2FVJud3NEbYi1d-15">
          <mxGeometry relative="1" as="geometry">
            <mxPoint x="17" y="-4" as="offset" />
          </mxGeometry>
        </mxCell>
        <mxCell id="gjaV1r2FVJud3NEbYi1d-17" value="Informe sua idade" style="strokeWidth=2;html=1;shape=mxgraph.flowchart.display;whiteSpace=wrap;rounded=0;labelBackgroundColor=none;sketch=0;fontSize=12;fontColor=#FFFFFF;fillColor=#F45B69;strokeColor=none;" vertex="1" parent="WIyWlLk6GJQsqaUBKTNV-1">
          <mxGeometry x="27" y="298" width="114" height="63" as="geometry" />
        </mxCell>
        <mxCell id="gjaV1r2FVJud3NEbYi1d-18" value="" style="endArrow=classic;html=1;rounded=1;sketch=0;fontSize=12;fontColor=#FFFFFF;strokeColor=#028090;fillColor=#F45B69;curved=0;" edge="1" parent="WIyWlLk6GJQsqaUBKTNV-1" source="gjaV1r2FVJud3NEbYi1d-17">
          <mxGeometry width="50" height="50" relative="1" as="geometry">
            <mxPoint x="84" y="411" as="sourcePoint" />
            <mxPoint x="84" y="420" as="targetPoint" />
          </mxGeometry>
        </mxCell>
        <mxCell id="gjaV1r2FVJud3NEbYi1d-19" value="Idade &amp;gt; 18" style="rounded=0;whiteSpace=wrap;html=1;labelBackgroundColor=none;sketch=0;fontSize=12;fontColor=#FFFFFF;strokeColor=#028090;fillColor=#F45B69;" vertex="1" parent="WIyWlLk6GJQsqaUBKTNV-1">
          <mxGeometry x="25" y="418" width="120" height="60" as="geometry" />
        </mxCell>
        <mxCell id="gjaV1r2FVJud3NEbYi1d-22" value="" style="endArrow=classic;html=1;rounded=1;sketch=0;fontSize=12;fontColor=#FFFFFF;strokeColor=#028090;fillColor=#F45B69;curved=0;" edge="1" parent="WIyWlLk6GJQsqaUBKTNV-1" source="gjaV1r2FVJud3NEbYi1d-19">
          <mxGeometry relative="1" as="geometry">
            <mxPoint x="145" y="448" as="sourcePoint" />
            <mxPoint x="236" y="448" as="targetPoint" />
          </mxGeometry>
        </mxCell>
        <mxCell id="gjaV1r2FVJud3NEbYi1d-23" value="Não" style="edgeLabel;resizable=0;html=1;align=center;verticalAlign=middle;rounded=0;labelBackgroundColor=none;sketch=0;fontSize=12;fontColor=#FFFFFF;strokeColor=#028090;fillColor=#F45B69;" connectable="0" vertex="1" parent="gjaV1r2FVJud3NEbYi1d-22">
          <mxGeometry relative="1" as="geometry">
            <mxPoint y="-10" as="offset" />
          </mxGeometry>
        </mxCell>
        <mxCell id="gjaV1r2FVJud3NEbYi1d-24" value="Evento para maiores de 18 anos" style="strokeWidth=2;html=1;shape=mxgraph.flowchart.display;whiteSpace=wrap;rounded=0;labelBackgroundColor=none;sketch=0;fontSize=12;fontColor=#FFFFFF;fillColor=#F45B69;strokeColor=none;" vertex="1" parent="WIyWlLk6GJQsqaUBKTNV-1">
          <mxGeometry x="239" y="415" width="125" height="67" as="geometry" />
        </mxCell>
        <mxCell id="gjaV1r2FVJud3NEbYi1d-26" value="" style="curved=1;endArrow=classic;html=1;rounded=1;sketch=0;fontSize=12;fontColor=#FFFFFF;strokeColor=#028090;fillColor=#F45B69;entryX=0;entryY=1;entryDx=0;entryDy=0;exitX=1;exitY=0.5;exitDx=0;exitDy=0;exitPerimeter=0;shadow=0;" edge="1" parent="WIyWlLk6GJQsqaUBKTNV-1" source="gjaV1r2FVJud3NEbYi1d-24" target="gjaV1r2FVJud3NEbYi1d-3">
          <mxGeometry width="50" height="50" relative="1" as="geometry">
            <mxPoint x="364" y="498.5" as="sourcePoint" />
            <mxPoint x="434.71067811865476" y="448.5" as="targetPoint" />
            <Array as="points">
              <mxPoint x="616" y="390" />
            </Array>
          </mxGeometry>
        </mxCell>
        <mxCell id="gjaV1r2FVJud3NEbYi1d-27" value="" style="endArrow=classic;html=1;rounded=1;shadow=0;sketch=0;fontSize=12;fontColor=#FFFFFF;strokeColor=#028090;fillColor=#F45B69;curved=0;" edge="1" parent="WIyWlLk6GJQsqaUBKTNV-1" source="gjaV1r2FVJud3NEbYi1d-19">
          <mxGeometry relative="1" as="geometry">
            <mxPoint x="85" y="478" as="sourcePoint" />
            <mxPoint x="85" y="563" as="targetPoint" />
          </mxGeometry>
        </mxCell>
        <mxCell id="gjaV1r2FVJud3NEbYi1d-28" value="Sim" style="edgeLabel;resizable=0;html=1;align=center;verticalAlign=middle;rounded=0;labelBackgroundColor=none;sketch=0;fontSize=12;fontColor=#FFFFFF;strokeColor=#028090;fillColor=#F45B69;" connectable="0" vertex="1" parent="gjaV1r2FVJud3NEbYi1d-27">
          <mxGeometry relative="1" as="geometry">
            <mxPoint x="19" y="-1" as="offset" />
          </mxGeometry>
        </mxCell>
        <mxCell id="gjaV1r2FVJud3NEbYi1d-29" value="Cadastro efetuado com sucesso" style="strokeWidth=2;html=1;shape=mxgraph.flowchart.display;whiteSpace=wrap;rounded=0;labelBackgroundColor=none;sketch=0;fontSize=12;fontColor=#FFFFFF;fillColor=#F45B69;strokeColor=none;" vertex="1" parent="WIyWlLk6GJQsqaUBKTNV-1">
          <mxGeometry x="22" y="567" width="122" height="67" as="geometry" />
        </mxCell>
        <mxCell id="gjaV1r2FVJud3NEbYi1d-30" value="" style="endArrow=classic;html=1;rounded=1;shadow=0;sketch=0;fontSize=12;fontColor=#FFFFFF;strokeColor=#028090;fillColor=#F45B69;curved=0;" edge="1" parent="WIyWlLk6GJQsqaUBKTNV-1" source="gjaV1r2FVJud3NEbYi1d-29">
          <mxGeometry width="50" height="50" relative="1" as="geometry">
            <mxPoint x="83" y="684" as="sourcePoint" />
            <mxPoint x="83" y="695" as="targetPoint" />
          </mxGeometry>
        </mxCell>
        <mxCell id="gjaV1r2FVJud3NEbYi1d-31" value="Participantes &amp;lt;= 100" style="rounded=0;whiteSpace=wrap;html=1;labelBackgroundColor=none;sketch=0;fontSize=12;fontColor=#FFFFFF;strokeColor=#028090;fillColor=#F45B69;" vertex="1" parent="WIyWlLk6GJQsqaUBKTNV-1">
          <mxGeometry x="16" y="696" width="139" height="71" as="geometry" />
        </mxCell>
        <mxCell id="gjaV1r2FVJud3NEbYi1d-34" value="" style="endArrow=classic;html=1;rounded=1;shadow=0;sketch=0;fontSize=12;fontColor=#FFFFFF;strokeColor=#028090;fillColor=#F45B69;curved=0;" edge="1" parent="WIyWlLk6GJQsqaUBKTNV-1" source="gjaV1r2FVJud3NEbYi1d-31">
          <mxGeometry width="50" height="50" relative="1" as="geometry">
            <mxPoint x="85.5" y="817" as="sourcePoint" />
            <mxPoint x="86" y="828" as="targetPoint" />
          </mxGeometry>
        </mxCell>
        <mxCell id="gjaV1r2FVJud3NEbYi1d-35" value="Numero de participantes &amp;lt;= 100?" style="rhombus;whiteSpace=wrap;html=1;rounded=0;labelBackgroundColor=none;sketch=0;fontSize=12;fontColor=#FFFFFF;strokeColor=#028090;fillColor=#F45B69;" vertex="1" parent="WIyWlLk6GJQsqaUBKTNV-1">
          <mxGeometry x="28" y="829" width="117" height="117" as="geometry" />
        </mxCell>
        <mxCell id="gjaV1r2FVJud3NEbYi1d-36" value="" style="endArrow=classic;html=1;rounded=1;shadow=0;sketch=0;fontSize=12;fontColor=#FFFFFF;strokeColor=#028090;fillColor=#F45B69;curved=0;" edge="1" parent="WIyWlLk6GJQsqaUBKTNV-1" source="gjaV1r2FVJud3NEbYi1d-35">
          <mxGeometry relative="1" as="geometry">
            <mxPoint x="145" y="887.5" as="sourcePoint" />
            <mxPoint x="245" y="887.5" as="targetPoint" />
          </mxGeometry>
        </mxCell>
        <mxCell id="gjaV1r2FVJud3NEbYi1d-37" value="Não" style="edgeLabel;resizable=0;html=1;align=center;verticalAlign=middle;rounded=0;labelBackgroundColor=none;sketch=0;fontSize=12;fontColor=#FFFFFF;strokeColor=#028090;fillColor=#F45B69;" connectable="0" vertex="1" parent="gjaV1r2FVJud3NEbYi1d-36">
          <mxGeometry relative="1" as="geometry">
            <mxPoint y="-10" as="offset" />
          </mxGeometry>
        </mxCell>
        <mxCell id="gjaV1r2FVJud3NEbYi1d-38" value="Excedeu o limite de cadastros" style="strokeWidth=2;html=1;shape=mxgraph.flowchart.display;whiteSpace=wrap;rounded=0;labelBackgroundColor=none;sketch=0;fontSize=12;fontColor=#FFFFFF;fillColor=#F45B69;strokeColor=none;" vertex="1" parent="WIyWlLk6GJQsqaUBKTNV-1">
          <mxGeometry x="248" y="853" width="126" height="72" as="geometry" />
        </mxCell>
        <mxCell id="gjaV1r2FVJud3NEbYi1d-39" value="" style="curved=1;endArrow=classic;html=1;rounded=1;shadow=0;sketch=0;fontSize=12;fontColor=#FFFFFF;strokeColor=#028090;fillColor=#F45B69;entryX=0.292;entryY=0.992;entryDx=0;entryDy=0;entryPerimeter=0;exitX=1;exitY=0.5;exitDx=0;exitDy=0;exitPerimeter=0;" edge="1" parent="WIyWlLk6GJQsqaUBKTNV-1" source="gjaV1r2FVJud3NEbYi1d-38" target="gjaV1r2FVJud3NEbYi1d-3">
          <mxGeometry width="50" height="50" relative="1" as="geometry">
            <mxPoint x="374" y="939" as="sourcePoint" />
            <mxPoint x="444.71067811865476" y="889" as="targetPoint" />
            <Array as="points">
              <mxPoint x="433" y="884" />
              <mxPoint x="563" y="812" />
              <mxPoint x="656" y="624" />
            </Array>
          </mxGeometry>
        </mxCell>
      </root>
    </mxGraphModel>
  </diagram>
</mxfile>
